<svg width="38" height="54" viewBox="0 0 38 54" fill="none" xmlns="http://www.w3.org/2000/svg">
<path d="M0 49.1918H38V54H0V49.1918Z" fill="white"/>
<path d="M0 44.3835H38V49.1918H0V44.3835Z" fill="white"/>
<path fill-rule="evenodd" clip-rule="evenodd" d="M25.2403 14.0549H12.7595C12.4378 33.5499 9.4654 48.8221 5.8461 48.8221C5.72534 48.8221 5.60527 48.8051 5.48602 48.7715L5.48071 48.8221H5.8461H32.1538H32.5192L32.5139 48.7715C32.3946 48.8051 32.2746 48.8221 32.1538 48.8221C28.5345 48.8221 25.5621 33.5499 25.2403 14.0549Z" fill="white"/>
<path d="M31.423 12.5753C31.423 19.5205 25.861 25.1507 18.9999 25.1507C12.1388 25.1507 6.57684 19.5205 6.57684 12.5753C6.57684 5.63017 12.1388 0 18.9999 0C25.861 0 31.423 5.63017 31.423 12.5753Z" fill="white"/>
</svg>
